/* XPM */
static char * task_focus_xpm[] = {
"4 24 3 1",
" 	c None",
".	c #4C566A",
"+	c #A3BE8C",
"....",
"....",
"....",
"....",
"....",
"....",
"....",
"....",
"....",
"....",
"....",
"....",
"....",
"....",
"....",
"....",
"....",
"....",
"....",
"....",
"....",
"....",
"++++",
"++++"};
